<?xml version="1.0" standalone="no"?>
<!DOCTYPE svg PUBLIC "-//W3C//DTD SVG 20010904//EN"
 "http://www.w3.org/TR/2001/REC-SVG-20010904/DTD/svg10.dtd">
<svg version="1.0" xmlns="http://www.w3.org/2000/svg"
 width="379.000000pt" height="379.000000pt" viewBox="0 0 379.000000 379.000000"
 preserveAspectRatio="xMidYMid meet">
<metadata>
Created by potrace 1.14, written by Peter Selinger 2001-2017
</metadata>
<g transform="translate(0.000000,379.000000) scale(0.100000,-0.100000)"
fill="#000000" stroke="none">
<path d="M0 2650 c0 -753 3 -1140 10 -1140 6 0 10 -11 10 -25 0 -14 -5 -25
-11 -25 -6 0 6 -20 27 -45 60 -73 58 -167 -6 -275 -31 -53 -39 -90 -17 -90 6
0 279 0 605 0 337 0 592 -4 592 -9 0 -11 -101 -19 -354 -27 -168 -6 -198 -5
-191 7 7 11 6 12 -6 3 -9 -8 -98 -13 -274 -14 -252 -3 -345 3 -345 22 0 5 -9
4 -20 -2 -18 -10 -20 -21 -20 -120 l0 -110 1894 0 1895 0 0 125 0 125 -187 0
c-103 0 -602 -5 -1110 -11 -829 -11 -925 -10 -939 3 -14 14 16 16 303 19 176
1 407 2 514 1 121 -1 187 1 175 7 -16 7 -10 10 30 13 l50 4 -52 2 c-28 1 -54
6 -58 12 -6 9 150 7 445 -8 135 -6 140 -7 70 -13 -41 -3 113 -6 343 -7 l417
-2 0 25 0 25 -732 1 c-403 0 -822 0 -930 0 -109 0 -198 3 -199 7 0 4 -3 19 -5
35 -3 15 0 27 6 27 16 0 12 27 -6 34 -9 3 -108 6 -220 6 -211 0 -207 -1 -203
37 0 4 -8 10 -18 14 -17 7 -17 8 0 8 25 1 21 19 -5 24 l-23 4 23 2 c32 2 27
21 -5 22 l-28 1 30 8 30 7 -35 5 -35 5 33 1 c17 1 32 7 32 13 0 7 -14 10 -35
7 -34 -4 -35 -3 -35 29 0 18 0 36 1 40 0 4 -8 10 -18 14 -17 7 -17 8 0 8 20 1
23 17 5 24 -10 4 -10 6 0 6 7 1 15 -6 18 -14 8 -21 54 -19 70 3 13 15 13 15 8
0 -4 -13 2 -17 33 -21 l38 -4 -37 -1 c-36 -2 -38 -4 -38 -36 0 -33 2 -35 38
-39 l37 -4 -37 -1 c-21 -1 -38 -6 -38 -12 0 -5 17 -11 38 -11 l37 -2 -40 -7
-40 -6 40 -6 40 -5 -37 -1 c-21 -1 -38 -6 -38 -11 0 -6 17 -12 38 -14 l37 -4
-37 -1 c-21 -1 -38 -6 -38 -11 0 -6 17 -12 38 -14 l37 -4 -37 -1 c-31 -2 -38
-6 -38 -22 0 -18 7 -20 65 -20 l65 0 0 246 0 247 87 -7 c48 -4 89 -8 90 -10 1
-1 3 -37 4 -81 3 -88 14 -136 32 -132 7 1 11 -4 9 -11 -1 -8 2 -11 8 -7 6 3 8
9 6 13 -2 4 9 8 25 9 21 2 29 -2 30 -15 0 -10 3 -12 6 -4 2 6 12 12 21 12 15
0 15 2 2 10 -11 7 -11 10 -2 10 7 0 16 -10 21 -22 l8 -22 11 21 c9 16 9 22 -1
26 -6 2 0 4 15 4 15 0 32 -5 38 -12 7 -8 5 -12 -5 -12 -8 0 -12 4 -9 9 3 4 1
8 -5 8 -5 0 -13 -4 -16 -10 -5 -9 8 -14 19 -7 2 1 14 -7 27 -18 15 -13 19 -14
11 -3 -7 9 -9 19 -4 22 10 6 39 2 48 -7 4 -4 13 -2 20 3 8 8 16 7 25 -2 19
-18 49 -19 42 -2 -3 8 -9 11 -14 8 -5 -3 -6 2 -3 10 3 9 11 13 18 9 6 -4 19
-6 29 -4 10 1 27 -5 38 -15 18 -16 19 -16 19 0 0 10 -5 14 -12 10 -7 -5 -8 -3
-3 6 6 10 12 7 25 -10 18 -23 67 -25 63 -2 -4 15 13 16 22 2 5 -8 11 -7 21 1
11 9 14 9 14 0 0 -7 4 -9 10 -6 5 3 10 1 10 -5 0 -7 8 -9 21 -5 16 5 20 4 14
-6 -4 -8 3 -3 15 11 12 14 19 19 15 13 -3 -7 -2 -13 4 -13 5 0 12 6 14 13 4 9
8 9 15 -2 8 -12 13 -12 25 -3 12 10 18 9 31 -3 9 -9 16 -13 16 -8 0 5 -5 14
-12 21 -7 7 -9 12 -6 12 4 0 14 -8 24 -17 13 -13 19 -14 22 -5 4 14 42 16 42
2 0 -12 22 -9 33 5 4 6 7 2 5 -9 -2 -10 3 -21 11 -24 10 -3 11 2 6 19 -5 19
-4 21 4 9 6 -8 11 -10 11 -5 0 6 5 3 10 -5 7 -11 10 -11 10 -2 0 7 5 10 10 7
6 -3 15 4 20 17 10 22 10 22 6 1 -2 -13 2 -24 11 -27 23 -9 26 -7 14 7 -9 11
-3 14 33 13 34 -1 43 -4 41 -17 -2 -9 3 -16 10 -16 7 0 11 6 8 14 -4 9 0 11
11 7 8 -3 14 -11 13 -17 -1 -7 7 -11 18 -9 30 4 65 24 59 34 -3 4 -1 8 5 8 5
0 12 -8 14 -17 4 -17 5 -17 6 0 1 17 41 26 41 8 0 -5 9 -11 20 -14 11 -3 17
-1 14 4 -3 6 5 7 19 4 14 -4 28 -2 32 5 5 8 11 8 22 -1 9 -8 17 -9 21 -3 11
14 45 18 37 4 -5 -9 -1 -10 15 -5 14 5 20 3 16 -3 -10 -16 21 -8 43 12 18 17
19 17 26 -3 6 -20 7 -20 32 7 14 15 20 20 14 11 -14 -21 -2 -32 17 -16 13 10
15 9 9 -5 -4 -13 -1 -16 15 -13 28 6 36 15 13 15 -10 0 -15 3 -12 7 4 3 19 0
33 -7 22 -12 27 -12 34 0 6 8 10 10 10 4 0 -12 55 -12 66 -1 3 3 20 1 37 -4
18 -5 33 -9 35 -9 1 0 7 10 13 23 l10 22 -5 -22 c-4 -22 7 -32 17 -15 2 4 2 2
1 -5 -2 -6 5 -17 14 -25 12 -10 14 -10 8 0 -4 7 -1 15 9 18 14 6 14 9 -2 27
-20 22 -2 16 29 -11 9 -7 22 -11 27 -7 8 4 11 352 11 1146 l0 1139 -1895 0
-1895 0 0 -1140z m1401 -859 c11 -12 26 -21 33 -21 7 0 28 -7 46 -16 38 -19
32 -25 -47 -44 l-53 -12 -1 -76 -1 -77 -44 134 c-24 74 -44 136 -44 138 0 2
21 1 46 -1 29 -3 53 -12 65 -25z m207 -58 l-28 -4 0 -115 c0 -97 -2 -114 -16
-114 -8 0 -13 4 -10 8 3 5 6 59 7 120 l3 112 35 -1 c31 -2 32 -3 9 -6z m-970
-265 c-1 -145 -4 -215 -5 -155 l-4 107 -44 0 -45 0 0 -110 0 -110 42 0 c23 0
38 -3 34 -7 -4 -4 -22 -6 -41 -5 -25 2 -35 -2 -35 -12 0 -12 11 -14 50 -12 43
3 50 1 50 -15 0 -16 -8 -19 -45 -19 -49 0 -125 20 -125 33 0 5 5 5 10 2 6 -3
10 1 10 9 0 10 -10 17 -27 17 l-28 2 28 4 27 4 0 110 0 109 -35 0 c-38 0 -49
-19 -12 -21 l22 -2 -22 -4 c-18 -3 -23 -11 -23 -34 0 -16 6 -29 13 -30 10 0
10 -2 0 -6 -21 -8 -15 -23 10 -24 l22 -2 -22 -4 c-18 -3 -23 -11 -23 -33 0
-16 4 -30 9 -32 5 -1 3 -9 -5 -16 -12 -11 -14 4 -16 100 l-2 113 -6 -115 c-5
-86 -7 -48 -8 153 l-2 267 125 0 125 0 -2 -262z m379 137 l31 -105 -24 0 c-37
0 -29 -20 9 -22 l32 -1 -32 -4 c-30 -4 -33 -7 -33 -39 0 -34 0 -34 48 -36 l47
-2 -47 -3 c-65 -5 -61 -23 5 -25 l52 -1 -55 -7 -55 -7 52 -1 c28 -1 55 -7 58
-12 4 -6 7 -31 7 -55 0 -35 3 -45 16 -46 15 -1 15 -2 0 -6 -11 -3 -18 -14 -18
-29 0 -19 5 -24 24 -24 14 0 26 -7 30 -17 3 -10 9 -24 12 -31 5 -10 -4 -12
-37 -8 -24 2 -61 5 -81 5 -32 1 -38 4 -39 24 0 16 -2 18 -7 6 -6 -13 -11 -13
-32 -2 -22 11 -23 13 -5 14 l20 0 -20 9 c-12 5 10 6 53 3 l72 -6 0 28 0 28
-77 -7 c-42 -3 -97 -7 -122 -7 l-46 -2 40 -7 40 -7 -40 -3 -40 -3 50 -7 50 -7
-50 -3 -50 -3 50 -7 50 -7 -47 -1 c-26 -1 -48 -7 -51 -14 -3 -7 -6 40 -6 105
l-1 117 48 0 49 0 6 98 c4 53 7 123 7 154 0 57 7 88 19 88 4 0 21 -47 38 -105z
m-733 -81 c3 -9 6 -27 6 -40 0 -20 -5 -24 -30 -24 -28 0 -30 2 -30 40 0 36 3
40 24 40 13 0 27 -7 30 -16z m2712 -23 c-3 -5 -16 -11 -28 -14 -22 -6 -22 -5
-4 8 22 17 40 20 32 6z m-2403 -108 c-7 -2 -21 -2 -30 0 -10 3 -4 5 12 5 17 0
24 -2 18 -5z m0 -100 c-7 -2 -21 -2 -30 0 -10 3 -4 5 12 5 17 0 24 -2 18 -5z
m552 -83 c3 -5 1 -10 -4 -10 -6 0 -11 5 -11 10 0 6 2 10 4 10 3 0 8 -4 11 -10z
m740 1 c-7 -13 -323 -13 -330 -1 -4 6 58 10 165 10 103 0 169 -4 165 -9z m12
-27 c-3 -3 -12 -4 -19 -1 -8 3 -5 6 6 6 11 1 17 -2 13 -5z m-229 -21 c-27 -2
-69 -2 -95 0 -27 2 -5 3 47 3 52 0 74 -1 48 -3z m85 0 c-7 -2 -19 -2 -25 0 -7
3 -2 5 12 5 14 0 19 -2 13 -5z m125 0 c-21 -2 -55 -2 -75 0 -21 2 -4 4 37 4
41 0 58 -2 38 -4z m-348 -28 c0 -8 -2 -15 -4 -15 -2 0 -6 7 -10 15 -3 8 -1 15
4 15 6 0 10 -7 10 -15z m136 7 c-8 -13 -126 -15 -126 -3 0 7 26 11 66 11 36 0
63 -4 60 -8z m94 -1 c0 -16 -28 -20 -34 -5 -4 9 1 14 14 14 11 0 20 -4 20 -9z
m150 0 c0 -16 -39 -23 -91 -16 -72 10 -60 25 21 25 39 0 70 -4 70 -9z m648
-128 c-10 -2 -28 -2 -40 0 -13 2 -5 4 17 4 22 1 32 -1 23 -4z m-690 -50 c-10
-2 -26 -2 -35 0 -10 3 -2 5 17 5 19 0 27 -2 18 -5z m1106 -28 c3 -9 -1 -18
-10 -22 -19 -7 -28 2 -21 22 8 19 23 19 31 0z m116 -11 c0 -8 -7 -14 -15 -14
-15 0 -21 21 -9 33 10 9 24 -2 24 -19z m384 11 c3 -9 -1 -18 -10 -22 -19 -7
-28 2 -21 22 8 19 23 19 31 0z m-124 -10 c0 -8 -4 -15 -9 -15 -13 0 -22 16
-14 24 11 11 23 6 23 -9z m-1001 -41 c2 -2 -40 -4 -95 -3 -67 0 -92 3 -79 9
18 8 164 3 174 -6z m-1399 -4 c0 -5 -7 -10 -15 -10 -8 0 -15 5 -15 10 0 6 7
10 15 10 8 0 15 -4 15 -10z m90 0 c0 -5 -4 -10 -10 -10 -5 0 -10 5 -10 10 0 6
5 10 10 10 6 0 10 -4 10 -10z m205 0 c-3 -5 -10 -10 -16 -10 -5 0 -9 5 -9 10
0 6 7 10 16 10 8 0 12 -4 9 -10z m395 0 c0 -5 -2 -10 -4 -10 -3 0 -8 5 -11 10
-3 6 -1 10 4 10 6 0 11 -4 11 -10z m200 6 c0 -3 -4 -8 -10 -11 -5 -3 -10 -1
-10 4 0 6 5 11 10 11 6 0 10 -2 10 -4z m90 -6 c0 -5 -4 -10 -10 -10 -5 0 -10
5 -10 10 0 6 5 10 10 10 6 0 10 -4 10 -10z"/>
<path d="M420 1710 c0 -5 16 -10 35 -10 19 0 35 5 35 10 0 6 -16 10 -35 10
-19 0 -35 -4 -35 -10z"/>
<path d="M500 1710 c0 -5 7 -10 15 -10 8 0 15 5 15 10 0 6 -7 10 -15 10 -8 0
-15 -4 -15 -10z"/>
<path d="M540 1710 c0 -5 20 -10 45 -10 25 0 45 5 45 10 0 6 -20 10 -45 10
-25 0 -45 -4 -45 -10z"/>
<path d="M401 1674 c0 -11 3 -14 6 -6 3 7 2 16 -1 19 -3 4 -6 -2 -5 -13z"/>
<path d="M420 1675 c0 -10 11 -15 35 -15 24 0 35 5 35 15 0 10 -11 15 -35 15
-24 0 -35 -5 -35 -15z"/>
<path d="M500 1675 c0 -8 7 -15 15 -15 8 0 15 7 15 15 0 8 -7 15 -15 15 -8 0
-15 -7 -15 -15z"/>
<path d="M540 1675 c0 -11 12 -15 45 -15 33 0 45 4 45 15 0 11 -12 15 -45 15
-33 0 -45 -4 -45 -15z"/>
<path d="M420 1640 c0 -5 16 -10 35 -10 19 0 35 5 35 10 0 6 -16 10 -35 10
-19 0 -35 -4 -35 -10z"/>
<path d="M500 1640 c0 -5 7 -10 15 -10 8 0 15 5 15 10 0 6 -7 10 -15 10 -8 0
-15 -4 -15 -10z"/>
<path d="M540 1640 c0 -5 20 -10 45 -10 25 0 45 5 45 10 0 6 -20 10 -45 10
-25 0 -45 -4 -45 -10z"/>
<path d="M420 1610 c0 -5 16 -10 35 -10 19 0 35 5 35 10 0 6 -16 10 -35 10
-19 0 -35 -4 -35 -10z"/>
<path d="M500 1610 c0 -5 7 -10 15 -10 8 0 15 5 15 10 0 6 -7 10 -15 10 -8 0
-15 -4 -15 -10z"/>
<path d="M540 1610 c0 -5 20 -10 45 -10 25 0 45 5 45 10 0 6 -20 10 -45 10
-25 0 -45 -4 -45 -10z"/>
<path d="M402 1560 c0 -19 2 -27 5 -17 2 9 2 25 0 35 -3 9 -5 1 -5 -18z"/>
<path d="M420 1581 c0 -5 10 -12 23 -14 l22 -4 -22 -2 c-39 -2 -28 -31 12 -31
32 0 35 2 35 30 0 28 -3 30 -35 30 -19 0 -35 -4 -35 -9z"/>
<path d="M500 1560 c0 -20 5 -30 15 -30 10 0 15 10 15 30 0 20 -5 30 -15 30
-10 0 -15 -10 -15 -30z"/>
<path d="M540 1560 c0 -29 2 -30 45 -30 43 0 45 1 45 29 0 27 -2 29 -45 29
-43 1 -45 0 -45 -28z m60 1 c0 -4 -11 -6 -25 -3 -14 2 -25 6 -25 8 0 2 11 4
25 4 14 0 25 -4 25 -9z"/>
<path d="M420 1510 c0 -5 16 -10 35 -10 19 0 35 5 35 10 0 6 -16 10 -35 10
-19 0 -35 -4 -35 -10z"/>
<path d="M500 1510 c0 -5 7 -10 15 -10 8 0 15 5 15 10 0 6 -7 10 -15 10 -8 0
-15 -4 -15 -10z"/>
<path d="M540 1510 c0 -5 20 -10 45 -10 25 0 45 5 45 10 0 6 -20 10 -45 10
-25 0 -45 -4 -45 -10z"/>
<path d="M402 1460 c0 -19 2 -27 5 -17 2 9 2 25 0 35 -3 9 -5 1 -5 -18z"/>
<path d="M420 1460 c0 -29 2 -30 35 -28 31 2 35 5 35 30 0 25 -3 28 -35 28
-32 0 -35 -2 -35 -30z"/>
<path d="M500 1462 c0 -19 5 -29 15 -29 10 0 15 10 15 29 0 18 -5 28 -15 28
-10 0 -15 -10 -15 -28z"/>
<path d="M540 1460 c0 -28 2 -29 45 -28 43 0 45 2 45 29 0 28 -2 29 -45 29
-43 0 -45 -1 -45 -30z"/>
<path d="M500 1310 c0 -91 3 -110 15 -110 12 0 15 19 15 110 0 91 -3 110 -15
110 -12 0 -15 -19 -15 -110z"/>
<path d="M500 1175 c0 -6 7 -12 15 -12 8 0 15 6 15 12 0 6 -7 12 -15 12 -8 0
-15 -6 -15 -12z"/>
<path d="M960 1490 c0 -5 7 -10 15 -10 8 0 15 5 15 10 0 6 -7 10 -15 10 -8 0
-15 -4 -15 -10z"/>
<path d="M963 1435 c0 -24 4 -35 13 -35 9 0 14 12 14 35 0 22 -5 35 -13 35 -8
0 -13 -14 -14 -35z"/>
<path d="M960 1380 c0 -5 7 -10 15 -10 8 0 15 5 15 10 0 6 -7 10 -15 10 -8 0
-15 -4 -15 -10z"/>
<path d="M888 1343 c17 -2 47 -2 65 0 17 2 3 4 -33 4 -36 0 -50 -2 -32 -4z"/>
<path d="M1000 1330 c0 -5 23 -10 50 -10 28 0 50 5 50 10 0 6 -22 10 -50 10
-27 0 -50 -4 -50 -10z"/>
<path d="M860 1315 c0 -12 14 -15 63 -15 50 0 64 3 64 15 0 12 -14 15 -64 15
-49 0 -63 -3 -63 -15z"/>
<path d="M1000 1300 c0 -5 23 -10 50 -10 28 0 50 5 50 10 0 6 -22 10 -50 10
-27 0 -50 -4 -50 -10z"/>
<path d="M860 1270 c0 -15 7 -20 28 -21 l27 -1 -30 -8 c-23 -6 -14 -8 39 -9
38 0 67 2 64 5 -3 3 -20 6 -37 6 -17 1 -31 4 -31 8 0 4 14 6 32 6 22 -1 32 4
34 17 2 15 -7 17 -62 17 -57 0 -64 -2 -64 -20z"/>
<path d="M1000 1260 c0 -17 7 -20 50 -20 43 0 50 3 50 20 0 17 -7 20 -50 20
-43 0 -50 -3 -50 -20z"/>
<path d="M1650 1480 l0 -240 29 0 c28 0 30 3 34 43 l4 42 1 -42 c1 -24 7 -43
12 -43 13 0 14 467 1 475 -5 3 -12 -9 -14 -27 l-4 -33 -1 33 c-2 29 -5 32 -32
32 l-30 0 0 -240z m67 -22 c-2 -18 -4 -4 -4 32 0 36 2 50 4 33 2 -18 2 -48 0
-65z"/>
<path d="M1750 1475 c0 -150 4 -235 10 -235 6 0 10 85 10 235 0 150 -4 235
-10 235 -6 0 -10 -85 -10 -235z"/>
<path d="M1780 1475 c0 -202 2 -235 15 -235 13 0 15 33 15 235 0 202 -2 235
-15 235 -13 0 -15 -33 -15 -235z"/>
<path d="M2571 1494 c0 -11 3 -14 6 -6 3 7 2 16 -1 19 -3 4 -6 -2 -5 -13z"/>
<path d="M3176 1501 c-3 -5 3 -11 15 -14 16 -4 18 -3 8 9 -13 16 -16 17 -23 5z"/>
<path d="M3326 1495 c-3 -8 -1 -15 4 -15 6 0 10 7 10 15 0 8 -2 15 -4 15 -2 0
-6 -7 -10 -15z"/>
<path d="M3660 1490 c0 -5 5 -10 11 -10 5 0 7 5 4 10 -3 6 -8 10 -11 10 -2 0
-4 -4 -4 -10z"/>
<path d="M2510 1480 c-9 -6 -10 -10 -3 -10 6 0 15 5 18 10 8 12 4 12 -15 0z"/>
<path d="M1440 1435 c0 -32 3 -35 29 -35 26 0 29 3 28 35 -1 31 -4 35 -29 35
-25 0 -28 -3 -28 -35z"/>
<path d="M0 1303 c0 -122 2 -133 18 -133 11 0 22 12 29 33 32 91 27 144 -17
197 l-29 35 -1 -132z"/>
<path d="M2411 1193 c-11 -9 -12 -12 -3 -13 7 0 17 -10 22 -22 6 -16 9 -18 9
-7 1 18 25 32 35 22 3 -4 6 -16 7 -27 0 -14 4 -10 10 13 6 18 8 36 5 39 -11
10 -69 7 -85 -5z"/>
<path d="M0 1134 c0 -8 5 -12 10 -9 6 3 10 10 10 16 0 5 -4 9 -10 9 -5 0 -10
-7 -10 -16z"/>
<path d="M0 675 c0 -25 2 -45 4 -45 3 0 33 7 68 15 205 47 439 9 614 -101 179
-111 293 -260 359 -469 l22 -70 544 -2 c393 -2 540 0 529 8 -12 9 -11 9 5 3
11 -4 38 -9 59 -12 l40 -4 -17 26 c-22 33 -9 34 18 1 l20 -26 215 3 215 3 -50
18 c-48 17 -49 17 -10 11 21 -3 52 -12 67 -20 20 -11 65 -14 180 -12 84 1 132
3 106 5 -57 5 -65 24 -10 23 20 0 57 3 82 8 40 7 43 9 25 19 -11 5 -43 13 -72
17 -28 4 -64 13 -79 21 -15 8 -52 17 -81 21 l-54 6 38 24 c21 13 50 24 66 24
15 0 27 4 27 9 0 5 18 12 39 16 22 3 47 13 58 20 11 9 44 14 90 15 l72 0 -1
-37 c-1 -21 0 -73 1 -115 l1 -78 45 0 45 0 0 115 0 115 255 0 255 0 0 25 0 25
-1393 0 -1393 0 -23 40 c-12 22 -19 40 -14 40 4 0 162 0 351 0 188 0 342 3
342 8 0 4 -6 14 -12 22 -7 7 0 4 16 -8 29 -22 31 -22 520 -22 459 1 496 2 576
21 47 11 89 24 94 29 15 15 -38 22 -127 19 l-82 -4 33 22 c32 22 41 23 272 23
l240 0 0 -55 0 -55 45 0 45 0 0 55 0 55 255 0 255 0 0 55 0 54 -32 -13 c-26
-12 -37 -12 -62 -1 -100 43 -132 58 -137 67 -10 16 -118 15 -128 -1 -8 -12
-14 -12 -43 1 -18 9 -42 18 -53 20 -11 3 28 8 86 12 59 5 116 5 128 1 12 -4
71 -3 131 0 107 7 110 8 110 31 l0 24 -1895 0 -1895 0 0 -45z m1288 -36 c34
-11 62 -25 62 -30 0 -12 -18 -11 -60 3 -33 10 -72 13 -212 17 -43 1 -58 5 -58
15 0 8 8 17 18 20 36 11 189 -4 250 -25z m37 21 c3 -6 -1 -7 -9 -4 -18 7 -21
14 -7 14 6 0 13 -4 16 -10z m700 0 c-3 -5 -13 -10 -21 -10 -8 0 -12 5 -9 10 3
6 13 10 21 10 8 0 12 -4 9 -10z m1153 1 c18 -2 15 -31 -5 -38 -9 -4 -24 -14
-33 -23 -23 -23 -170 -19 -208 6 -27 18 -45 19 -348 25 -39 1 -134 -40 -134
-58 0 -7 -8 -13 -17 -13 -10 -1 -35 -7 -55 -14 -21 -8 -52 -11 -74 -7 l-38 6
45 39 c39 34 41 38 17 32 -14 -3 -34 -9 -45 -13 -16 -6 -16 -5 -4 10 26 32 1
31 -46 -2 -34 -25 -57 -33 -86 -33 -22 1 -41 3 -43 5 -2 2 1 18 7 35 10 31 20
36 73 44 19 3 969 2 994 -1z m-2173 -11 c3 -6 -1 -7 -9 -4 -18 7 -21 14 -7 14
6 0 13 -4 16 -10z m1315 -185 c-13 -14 -28 -25 -34 -25 -6 1 3 12 19 25 39 32
45 32 15 0z m-1373 -24 l23 -29 -40 10 c-23 6 -45 19 -51 29 -17 33 41 24 68
-10z m91 -3 c6 -17 10 -33 9 -35 -2 -1 -19 13 -37 32 -34 35 -34 35 -9 35 19
0 28 -8 37 -32z m1432 12 c-12 -22 -58 -45 -68 -35 -8 8 49 54 66 55 10 0 10
-5 2 -20z m150 0 c-54 -23 -100 -26 -100 -7 0 23 11 27 79 26 l66 0 -45 -19z
m-320 -239 c-5 -11 -15 -23 -21 -27 -6 -3 -3 5 6 20 20 30 30 35 15 7z m550
15 c0 -9 -40 -13 -46 -5 -3 5 6 9 20 9 14 0 26 -2 26 -4z m-887 -108 c9 -7 19
-26 22 -43 5 -27 4 -28 -7 -11 -7 11 -23 30 -35 43 -23 24 -9 32 20 11z"/>
<path d="M180 639 c-83 -8 -180 -28 -180 -38 0 -5 24 -1 53 7 37 11 98 16 207
16 172 1 224 -10 361 -79 185 -94 342 -285 393 -481 14 -55 26 -80 26 -55 0
48 -82 240 -129 300 -184 238 -445 356 -731 330z"/>
<path d="M188 613 c-20 -3 -28 -10 -29 -26 l0 -22 -9 22 c-6 15 -15 20 -29 16
-16 -4 -21 -14 -23 -42 l-1 -36 -4 34 c-4 31 -6 33 -35 27 -17 -3 -37 -6 -44
-6 -10 0 -14 -15 -14 -54 l0 -55 193 1 192 1 3 -36 c3 -33 1 -35 -23 -32 l-27
2 26 -25 c18 -18 29 -23 36 -16 6 6 22 57 36 114 20 83 23 105 12 111 -19 13
-46 11 -51 -3 -3 -8 -6 -6 -6 5 -1 11 -9 17 -23 17 -13 0 -52 2 -88 4 -36 2
-77 2 -92 -1z m199 -75 c-3 -7 -5 -2 -5 12 0 14 2 19 5 13 2 -7 2 -19 0 -25z
m-208 -33 c0 -5 -4 -3 -9 5 -5 8 -9 22 -9 30 0 16 17 -16 18 -35z m-72 -7 c-3
-8 -6 -5 -6 6 -1 11 2 17 5 13 3 -3 4 -12 1 -19z"/>
<path d="M461 543 c-5 -21 -14 -63 -21 -93 -6 -30 -14 -63 -17 -72 -3 -14 2
-18 26 -18 31 0 31 0 31 55 l0 55 83 0 c53 0 88 5 96 13 11 10 13 10 7 0 -4
-8 -1 -13 8 -13 36 0 11 21 -77 64 -50 25 -100 46 -109 46 -12 0 -20 -13 -27
-37z"/>
<path d="M561 411 c13 -36 32 -54 54 -49 14 2 10 10 -15 41 -39 45 -53 47 -39
8z"/>
<path d="M0 372 c0 -24 5 -53 11 -65 9 -16 9 -22 0 -25 -6 -2 -11 -15 -11 -28
0 -19 5 -24 25 -24 27 0 48 -31 27 -38 -19 -6 -14 -22 8 -22 11 0 20 -4 20 -9
0 -4 -18 -5 -40 -1 -35 6 -40 5 -40 -11 0 -16 34 -36 53 -31 4 1 12 -9 19 -22
6 -14 20 -26 31 -28 11 -2 22 -9 25 -16 4 -12 -23 -13 -43 0 -6 3 -26 9 -45
13 -31 5 -36 4 -37 -13 -3 -34 42 -46 190 -50 133 -4 137 -3 137 17 0 14 5 19
15 15 8 -4 22 -1 30 6 11 9 15 9 15 1 0 -6 -7 -14 -17 -18 -14 -5 -13 -8 7
-15 25 -9 30 -4 76 65 13 20 27 37 29 37 3 0 -10 -25 -30 -55 -38 -60 -32 -68
28 -40 29 14 30 14 13 0 -19 -14 -17 -15 26 -15 25 0 62 7 81 15 46 19 58 19
32 -1 -17 -13 1 -14 175 -12 l195 3 -3 29 c-5 42 -54 166 -64 160 -4 -3 -5 1
-3 8 3 8 -7 28 -21 46 l-27 32 -136 0 c-93 0 -141 -4 -149 -12 -8 -8 -12 -8
-12 -1 0 7 -59 11 -184 11 -165 1 -185 -1 -189 -16 -4 -15 -5 -15 -6 1 -1 24
-58 24 -64 0 -4 -17 -5 -17 -6 0 -1 11 -9 17 -26 17 -16 0 -29 9 -39 28 -23
42 -19 20 7 -35 21 -45 25 -49 49 -42 18 5 31 3 38 -6 14 -17 -7 -25 -37 -14
-13 5 -23 7 -23 5 0 -12 29 -71 34 -68 12 5 22 1 46 -19 16 -14 19 -19 8 -15
-11 3 -18 0 -18 -7 0 -7 -9 1 -19 16 -12 18 -20 24 -23 16 -2 -7 -16 16 -30
52 -14 35 -44 100 -67 144 l-40 80 -1 -43z m875 -132 c-3 -5 -12 -10 -18 -10
-7 0 -6 4 3 10 19 12 23 12 15 0z m-563 -39 c31 -28 31 -30 10 -28 -13 1 -37
14 -55 29 -30 25 -31 27 -10 28 13 0 37 -13 55 -29z m159 -4 c-10 -9 -11 -8
-5 6 3 10 9 15 12 12 3 -3 0 -11 -7 -18z m-41 -60 c0 -2 -10 -12 -21 -23 -22
-19 -22 -19 -8 4 12 19 29 30 29 19z m338 -64 c6 -15 12 -34 12 -42 -1 -9 -7
-1 -15 17 -8 17 -19 32 -25 32 -6 0 -8 5 -5 10 10 16 19 11 33 -17z m-498 -43
c0 -5 -2 -10 -4 -10 -3 0 -8 5 -11 10 -3 6 -1 10 4 10 6 0 11 -4 11 -10z"/>
<path d="M20 406 c0 -11 30 -66 36 -66 2 0 -3 15 -12 33 -19 36 -24 44 -24 33z"/>
<path d="M686 379 c-19 -19 -18 -19 35 -18 30 1 45 4 34 6 -11 3 -27 11 -35
18 -12 10 -18 9 -34 -6z"/>
<path d="M525 381 c-3 -5 -1 -12 5 -16 5 -3 10 1 10 9 0 18 -6 21 -15 7z"/>
<path d="M2828 363 c7 -3 16 -2 19 1 4 3 -2 6 -13 5 -11 0 -14 -3 -6 -6z"/>
<path d="M45 80 c-3 -5 1 -10 9 -10 9 0 16 5 16 10 0 6 -4 10 -9 10 -6 0 -13
-4 -16 -10z"/>
</g>
</svg>
